<?xml version="1.0" encoding="UTF-8"?>
<svg viewBox="0 0 400 240" xmlns="http://www.w3.org/2000/svg">
      <defs>
        <linearGradient id="bgEst" x1="0" y1="0" x2="1" y2="1">
          <stop offset="0%" stop-color="#0d2a1a"/>
          <stop offset="100%" stop-color="#1a4a2a"/>
        </linearGradient>
      </defs>
      <rect width="400" height="240" fill="url(#bgEst)"/>
      <!-- Decorative circles -->
      <circle cx="350" cy="40" r="80" fill="#1a5a30" opacity=".3"/>
      <circle cx="50" cy="200" r="70" fill="#0d3a1a" opacity=".4"/>
      <!-- Clipboard / estimate form -->
      <rect x="110" y="40" width="180" height="170" rx="10" fill="#f5f0e8"/>
      <rect x="130" y="30" width="140" height="22" rx="8" fill="#888"/>
      <rect x="148" y="26" width="104" height="22" rx="6" fill="#aaa"/>
      <!-- Form content -->
      <rect x="125" y="68" width="150" height="12" rx="3" fill="#ddd"/>
      <rect x="125" y="86" width="120" height="10" rx="3" fill="#e8e0d0"/>
      <rect x="125" y="100" width="140" height="10" rx="3" fill="#e8e0d0"/>
      <rect x="125" y="114" width="100" height="10" rx="3" fill="#e8e0d0"/>
      <!-- Checkboxes -->
      <rect x="125" y="132" width="12" height="12" rx="2" fill="none" stroke="#3a9040" stroke-width="2"/>
      <path d="M 127 138 L 130 141 L 136 135" stroke="#3a9040" stroke-width="2" fill="none" stroke-linecap="round"/>
      <rect x="125" y="150" width="12" height="12" rx="2" fill="none" stroke="#3a9040" stroke-width="2"/>
      <path d="M 127 156 L 130 159 L 136 153" stroke="#3a9040" stroke-width="2" fill="none" stroke-linecap="round"/>
      <rect x="125" y="168" width="12" height="12" rx="2" fill="none" stroke="#bbb" stroke-width="2"/>
      <rect x="143" y="134" width="80" height="8" rx="2" fill="#ddd"/>
      <rect x="143" y="152" width="90" height="8" rx="2" fill="#ddd"/>
      <rect x="143" y="170" width="70" height="8" rx="2" fill="#ddd"/>
      <!-- Price / estimate highlight -->
      <rect x="125" y="188" width="150" height="16" rx="4" fill="#3a9040"/>
      <text x="200" y="199" text-anchor="middle" font-size="9" fill="#fff" font-family="sans-serif" font-weight="bold">FREE ESTIMATE</text>
      <!-- Arborist character -->
      <circle cx="55" cy="90" r="28" fill="#e8b870"/>
      <ellipse cx="55" cy="68" rx="24" ry="18" fill="#3a7a3a"/>
      <rect x="35" y="118" width="38" height="55" rx="10" fill="#3a7a3a"/>
      <rect x="37" y="170" width="14" height="38" rx="7" fill="#1a3a6a"/>
      <rect x="53" y="170" width="14" height="38" rx="7" fill="#1a3a6a"/>
      <!-- Arm extended pointing -->
      <line x1="70" y1="135" x2="110" y2="130" stroke="#e8b870" stroke-width="10" stroke-linecap="round"/>
      <!-- Pen/pencil -->
      <rect x="106" y="124" width="20" height="6" rx="3" fill="#ffee80" transform="rotate(-15 106 124)"/>
      <!-- Tree in background -->
      <rect x="360" y="160" width="15" height="65" rx="5" fill="#5a3818" opacity=".6"/>
      <ellipse cx="367" cy="145" rx="35" ry="35" fill="#2a7030" opacity=".5"/>
      <ellipse cx="350" cy="158" rx="24" ry="22" fill="#3a8038" opacity=".5"/>
      <!-- Stars / rating -->
      <text x="200" y="60" text-anchor="middle" font-size="13" fill="#ffcc00">★★★★★</text>
    </svg>